<svg version="1.1" id="Layer_1" xmlns="http://www.w3.org/2000/svg" xmlns:xlink="http://www.w3.org/1999/xlink" x="0px" y="0px"
	 width="100%" viewBox="0 0 512 512" enable-background="new 0 0 512 512" xml:space="preserve">
<path fill="#525866" opacity="1.000000" stroke="none" 
	d="
M485.968048,226.229340 
	C486.653992,238.248596 488.105072,249.835602 487.839630,261.383148 
	C487.205688,288.964203 482.743927,316.014374 471.645660,341.432007 
	C465.203583,356.185883 458.298920,370.979156 449.561279,384.428589 
	C438.498199,401.457397 425.151184,416.852783 409.507782,430.219574 
	C393.178894,444.172119 375.650848,456.035034 356.315399,465.328369 
	C335.828827,475.174896 314.466125,482.230621 291.872925,484.936340 
	C279.085236,486.467804 266.169922,487.932800 253.327896,487.807495 
	C224.724045,487.528351 196.986847,482.008545 170.426193,471.126831 
	C152.352768,463.722351 135.151062,454.559998 119.588875,442.828308 
	C94.233734,423.714050 73.318848,400.469116 57.359898,372.849670 
	C45.378998,352.114899 36.498577,330.154236 31.441082,306.803802 
	C29.112520,296.052856 28.152105,284.972168 27.093060,273.990631 
	C26.298414,265.750793 25.736771,257.402954 26.117144,249.151413 
	C27.253784,224.493683 31.654451,200.441788 40.313141,177.195465 
	C48.922012,154.082870 60.957668,132.941330 76.057190,113.545021 
	C92.374001,92.585060 112.002487,75.066185 134.663010,61.374763 
	C147.583633,53.568146 161.468628,47.204079 175.348557,41.179108 
	C191.274826,34.265873 208.257812,30.371376 225.429962,28.298304 
	C239.212967,26.634378 253.260498,25.575533 267.095428,26.237576 
	C302.680603,27.940432 336.469116,37.037361 367.752563,54.419495 
	C382.787231,62.773254 396.717010,72.686493 409.739899,84.045464 
	C427.110626,99.196732 441.616974,116.631897 453.611694,136.160324 
	C468.773560,160.845032 479.497375,187.308563 484.049622,216.083435 
	C484.563873,219.334335 485.312683,222.548126 485.968048,226.229340 
M345.044495,56.933468 
	C344.554932,62.192997 344.178772,67.466255 343.544098,72.708214 
	C342.902069,78.010658 344.626556,82.207939 348.957916,85.242889 
	C370.428986,100.287659 387.383545,119.332939 400.040649,142.292435 
	C401.327271,144.626266 403.477325,147.135788 405.830811,148.121918 
	C419.091705,153.678268 432.537415,158.793457 446.418610,164.589279 
	C454.809387,167.478348 456.164856,167.433731 457.836731,162.042328 
	C458.583832,159.633240 457.686646,156.161133 456.418335,153.762161 
	C433.054810,109.570488 399.007843,76.300133 354.038635,54.330685 
	C351.585419,53.132175 348.926514,52.354774 345.779877,51.159763 
	C345.516235,53.247356 345.337250,54.664593 345.044495,56.933468 
M339.888885,56.262283 
	C340.293884,48.402035 339.671387,47.496563 332.149017,45.534061 
	C325.410522,43.776062 318.614044,42.230694 311.908203,40.358498 
	C271.785706,29.156713 231.848404,29.362103 192.064697,42.048286 
	C180.708389,45.669567 179.647812,47.024109 180.207962,59.010731 
	C180.207962,65.788490 180.207962,72.566246 180.207962,79.537170 
	C188.569107,80.048592 196.342072,80.347328 204.080536,81.034531 
	C219.700531,82.421631 235.085571,85.108727 248.668930,93.484596 
	C255.211945,97.519196 261.348053,98.013031 268.491180,95.564507 
	C280.377655,91.490044 292.335175,87.461700 304.522980,84.476196 
	C315.074066,81.891632 325.986450,80.782120 337.055176,78.968842 
	C337.881714,71.929482 338.752014,64.517563 339.888885,56.262283 
M399.320129,159.077484 
	C389.595337,175.286987 379.914337,191.522995 370.118866,207.689682 
	C367.214447,212.483215 366.186371,217.595688 367.288300,222.964340 
	C372.810669,249.869690 378.356201,276.771973 384.253082,303.596283 
	C384.882385,306.458771 387.289154,309.961853 389.828918,311.193970 
	C400.668060,316.452423 411.866913,320.969513 423.569122,326.163483 
	C432.880066,330.308868 436.234161,330.387390 440.049957,325.173920 
	C449.182159,312.696716 458.168915,300.100891 466.801483,287.275024 
	C471.626190,280.106659 474.109283,272.028534 473.030365,263.136536 
	C472.509613,258.844849 472.343964,254.510254 472.009277,250.195740 
	C470.119202,225.831497 464.508789,202.391022 454.266357,180.162506 
	C453.151550,177.743164 451.217285,175.071716 448.950226,173.917206 
	C436.100555,167.373611 423.074982,161.168488 410.018219,155.042282 
	C405.507538,152.925858 402.150146,154.351501 399.320129,159.077484 
M297.209808,371.940796 
	C272.830658,365.087250 248.477173,358.139221 224.037766,351.507782 
	C221.196548,350.736816 217.519730,350.877228 214.840378,352.022461 
	C194.119843,360.878845 173.525146,370.032104 152.950302,379.225067 
	C147.961777,381.453979 145.659988,385.974426 146.218002,391.436493 
	C147.721725,406.155823 152.466873,419.862579 159.416168,433.592072 
	C161.843979,436.787231 163.593124,441.296448 166.812424,442.959106 
	C184.531021,452.110107 202.926392,459.777008 222.352432,464.611084 
	C238.263748,468.570557 254.273239,470.891541 270.688049,467.391724 
	C289.990967,463.276123 305.806000,452.892365 320.687500,440.587280 
	C324.359802,437.550720 325.527405,434.252594 324.275848,429.645966 
	C320.324341,415.101105 316.197815,400.586365 312.888763,385.891113 
	C310.974457,377.389832 306.567688,372.783325 297.209808,371.940796 
M226.384262,90.574417 
	C218.737915,89.163620 211.112076,87.628067 203.441040,86.367554 
	C186.580627,83.597046 170.801407,84.735718 156.142456,95.508247 
	C137.254837,109.388329 121.833633,126.330528 108.224548,145.113922 
	C104.637405,150.064941 103.585510,155.842758 104.641632,162.149734 
	C107.924423,181.753998 110.733208,201.438522 114.130066,221.021805 
	C114.622536,223.860870 117.327950,226.316086 119.357498,229.455612 
	C119.928955,229.557404 120.500412,229.659180 121.709755,229.882004 
	C122.140907,229.913422 122.572052,229.944839 123.319969,230.504181 
	C123.904488,230.587555 124.489006,230.670929 125.714638,230.877792 
	C126.149437,230.883026 126.584244,230.888260 127.512344,231.447601 
	C129.698532,231.887146 131.884720,232.326706 134.700653,232.913254 
	C135.127411,232.970505 135.554184,233.027740 136.460831,233.668350 
	C155.028091,237.921844 173.615479,242.090500 192.148209,246.489487 
	C196.688507,247.567169 200.082504,246.577789 203.406158,243.330750 
	C222.582275,224.596680 241.804672,205.907883 261.208893,187.410950 
	C265.444885,183.373032 266.552795,179.027695 265.649750,173.507767 
	C262.326324,153.192780 259.413147,132.806900 255.774643,112.550255 
	C255.007309,108.278214 252.844131,102.785240 249.539948,100.746666 
	C242.647675,96.494370 234.563904,94.173271 226.384262,90.574417 
M334.587158,208.326859 
	C315.975922,201.870361 297.347992,195.461456 278.764130,188.927048 
	C273.508087,187.078949 269.162323,187.920853 265.117676,191.856430 
	C245.899429,210.556366 226.583832,229.156235 207.311096,247.800201 
	C203.534027,251.454025 202.334229,255.738098 203.564133,260.959930 
	C205.880600,270.794861 207.772003,280.729645 210.068726,290.569550 
	C213.681564,306.048126 217.483582,321.482544 221.086563,337.656799 
	C222.520508,343.144806 226.054352,346.332001 231.508881,347.876038 
	C254.458923,354.372467 277.399384,360.906769 300.280762,367.639771 
	C308.814514,370.150909 315.919739,368.226471 322.262451,362.254547 
	C339.706848,345.829834 357.122894,329.373535 374.723419,313.117340 
	C378.804443,309.348022 379.740814,305.138672 378.633423,300.087524 
	C373.099182,274.844299 367.489410,249.617325 362.065338,224.350479 
	C361.171600,220.187225 359.022980,217.279434 355.247223,215.844528 
	C348.602905,213.319519 341.825104,211.145859 334.587158,208.326859 
M78.588219,148.014938 
	C76.941292,148.235062 75.270195,148.756973 73.651268,148.627365 
	C61.189110,147.629700 56.093365,155.350342 51.615143,165.459763 
	C36.854176,198.782104 31.655134,233.782944 32.213280,269.826813 
	C32.393658,281.475128 35.751827,292.522095 43.770004,301.433807 
	C45.694920,303.573212 48.860748,305.505463 51.633671,305.787994 
	C57.893253,306.425751 64.266487,306.081604 70.588577,305.931000 
	C75.900421,305.804504 79.872604,302.617859 80.808556,297.469635 
	C84.814903,275.432587 93.816216,255.513580 105.600021,236.615845 
	C107.622856,233.371811 108.569603,228.682861 108.185272,224.844421 
	C106.432602,207.340057 104.029541,189.900787 101.855957,172.438644 
	C101.076859,166.179565 100.329323,159.916077 99.485420,153.665680 
	C98.857468,149.014709 96.427170,146.464676 91.412148,146.985428 
	C87.448715,147.396973 83.470604,147.667007 78.588219,148.014938 
M66.929436,376.578186 
	C80.296310,397.923035 97.142166,416.225189 116.221558,432.514069 
	C127.768814,442.372406 141.462219,442.937347 155.971161,441.285614 
	C154.523758,437.098846 153.076218,433.451904 151.998657,429.698761 
	C147.934586,415.543610 143.946182,401.366211 140.024261,387.170990 
	C138.476089,381.567535 135.587723,377.077911 131.211914,373.102570 
	C111.878075,355.538208 92.355019,338.079437 80.914551,313.781555 
	C80.445656,312.785706 79.040161,311.591309 78.054756,311.576599 
	C67.438293,311.417786 56.818565,311.477600 45.921997,311.477600 
	C46.018719,322.752655 45.043476,333.624512 50.062199,343.698914 
	C55.447353,354.508911 61.015049,365.228027 66.929436,376.578186 
M364.700317,454.220154 
	C383.019836,444.261383 399.636047,432.075775 413.846710,416.225037 
	C411.656952,415.747314 409.368835,415.546417 407.897217,416.546692 
	C391.890717,427.426880 373.904358,432.916992 355.090027,436.001709 
	C341.572418,438.218048 328.753479,441.078369 317.504089,450.166290 
	C301.439606,463.144165 283.313477,472.384338 262.151276,474.345795 
	C259.396790,474.601105 256.810516,476.670959 253.458450,478.217712 
	C270.692810,486.980957 324.979034,474.985077 364.700317,454.220154 
M453.583801,316.085693 
	C443.979980,328.486725 437.206848,341.773773 435.361481,357.916016 
	C433.577881,373.518005 426.130341,387.594269 419.064819,401.567291 
	C417.544708,404.573547 417.174347,408.161133 416.274353,411.480957 
	C416.957764,411.834015 417.641144,412.187103 418.324554,412.540161 
	C425.962494,406.606750 431.476105,398.596893 437.212158,390.931396 
	C462.766357,356.781464 477.102905,318.356750 480.076355,275.600555 
	C471.384552,288.899597 462.692749,302.198608 453.583801,316.085693 
z"/>
<path fill="#FFFFFF" opacity="1.000000" stroke="none" 
	d="
M221.205521,336.935638 
	C217.483582,321.482544 213.681564,306.048126 210.068726,290.569550 
	C207.772003,280.729645 205.880600,270.794861 203.564133,260.959930 
	C202.334229,255.738098 203.534027,251.454025 207.311096,247.800201 
	C226.583832,229.156235 245.899429,210.556366 265.117676,191.856430 
	C269.162323,187.920853 273.508087,187.078949 278.764130,188.927048 
	C297.347992,195.461456 315.975922,201.870361 334.799286,209.007492 
	C335.219238,211.332626 335.305481,213.003311 335.653198,214.617691 
	C340.489044,237.069366 345.238678,259.540894 350.299713,281.941986 
	C351.770050,288.449951 350.853424,293.693909 345.470459,297.989624 
	C342.356201,300.474915 339.491180,303.278198 336.568665,305.997192 
	C321.950256,319.597504 307.387146,333.257599 292.722961,346.808319 
	C287.593201,351.548584 281.443817,353.135925 274.649231,351.369110 
	C268.045837,349.652008 261.525391,347.618256 254.935654,345.845825 
	C243.705841,342.825348 232.450272,339.900574 221.205521,336.935638 
z"/>
<path fill="#FFFFFF" opacity="1.000000" stroke="none" 
	d="
M123.003204,229.976257 
	C122.572052,229.944839 122.140907,229.913422 121.323547,229.587860 
	C120.294678,229.178787 119.652008,229.063858 119.009338,228.948914 
	C117.327950,226.316086 114.622536,223.860870 114.130066,221.021805 
	C110.733208,201.438522 107.924423,181.753998 104.641632,162.149734 
	C103.585510,155.842758 104.637405,150.064941 108.224548,145.113922 
	C121.833633,126.330528 137.254837,109.388329 156.142456,95.508247 
	C170.801407,84.735718 186.580627,83.597046 203.441040,86.367554 
	C211.112076,87.628067 218.737915,89.163620 226.774323,91.133057 
	C233.309540,96.445137 236.290451,102.722870 237.080139,110.450523 
	C237.906738,118.539566 239.377075,126.565361 240.647995,134.605835 
	C242.334549,145.275711 244.261658,155.910492 245.756042,166.606369 
	C246.386963,171.122162 247.086136,175.748444 243.054443,179.655136 
	C223.343094,198.755280 203.785477,218.013977 184.148727,237.191238 
	C180.968933,240.296600 177.381393,241.482773 172.773849,240.320084 
	C162.458710,237.717133 152.050751,235.474182 141.650650,233.223022 
	C139.835815,232.830200 137.874573,233.113800 135.980942,233.084976 
	C135.554184,233.027740 135.127411,232.970505 134.238831,232.541275 
	C131.524338,231.744019 129.271698,231.318756 127.019043,230.893494 
	C126.584244,230.888260 126.149437,230.883026 125.329559,230.575150 
	C124.297394,230.173767 123.650299,230.075012 123.003204,229.976257 
z"/>
<path fill="#FFFFFF" opacity="1.000000" stroke="none" 
	d="
M159.287292,432.911102 
	C152.466873,419.862579 147.721725,406.155823 146.218002,391.436493 
	C145.659988,385.974426 147.961777,381.453979 152.950302,379.225067 
	C173.525146,370.032104 194.119843,360.878845 214.840378,352.022461 
	C217.519730,350.877228 221.196548,350.736816 224.037766,351.507782 
	C248.477173,358.139221 272.830658,365.087250 297.615021,372.430725 
	C298.376587,374.538879 298.674042,376.172729 299.098724,377.772858 
	C302.211273,389.500305 305.388763,401.210602 308.462585,412.948120 
	C309.992889,418.791656 309.687103,424.034882 303.832733,427.754852 
	C300.482086,429.883881 297.567505,432.685913 294.338898,435.022369 
	C276.928375,447.621796 257.853302,455.796692 235.984375,454.854584 
	C219.111221,454.127716 202.799438,450.005859 187.019272,444.005157 
	C177.714554,440.466858 168.527359,436.619446 159.287292,432.911102 
z"/>
<path fill="#FFFFFF" opacity="1.000000" stroke="none" 
	d="
M422.934509,325.757080 
	C411.866913,320.969513 400.668060,316.452423 389.828918,311.193970 
	C387.289154,309.961853 384.882385,306.458771 384.253082,303.596283 
	C378.356201,276.771973 372.810669,249.869690 367.288300,222.964340 
	C366.186371,217.595688 367.214447,212.483215 370.118866,207.689682 
	C379.914337,191.522995 389.595337,175.286987 399.775055,159.195023 
	C408.224518,163.385803 416.009033,167.966873 424.274475,171.385101 
	C432.060333,174.604980 436.140930,180.183731 439.168549,187.677536 
	C449.090027,212.234558 453.269745,237.891159 455.006683,264.114624 
	C455.533173,272.063568 453.794952,279.410614 449.775024,286.121857 
	C445.328064,293.545929 440.569702,300.792938 435.718353,307.962372 
	C431.626892,314.008850 427.208282,319.833984 422.934509,325.757080 
z"/>
<path fill="#FFFFFF" opacity="1.000000" stroke="none" 
	d="
M79.043610,148.007416 
	C83.470604,147.667007 87.448715,147.396973 91.412148,146.985428 
	C96.427170,146.464676 98.857468,149.014709 99.485420,153.665680 
	C100.329323,159.916077 101.076859,166.179565 101.855957,172.438644 
	C104.029541,189.900787 106.432602,207.340057 108.185272,224.844421 
	C108.569603,228.682861 107.622856,233.371811 105.600021,236.615845 
	C93.816216,255.513580 84.814903,275.432587 80.808556,297.469635 
	C79.872604,302.617859 75.900421,305.804504 70.588577,305.931000 
	C64.266487,306.081604 57.893253,306.425751 51.633671,305.787994 
	C48.860748,305.505463 45.694920,303.573212 43.770004,301.433807 
	C35.751827,292.522095 32.393658,281.475128 32.213280,269.826813 
	C31.655134,233.782944 36.854176,198.782104 51.615143,165.459763 
	C56.093365,155.350342 61.189110,147.629700 73.651268,148.627365 
	C75.270195,148.756973 76.941292,148.235062 79.043610,148.007416 
z"/>
<path fill="#FFFFFF" opacity="1.000000" stroke="none" 
	d="
M66.716263,376.282471 
	C61.015049,365.228027 55.447353,354.508911 50.062199,343.698914 
	C45.043476,333.624512 46.018719,322.752655 45.921997,311.477600 
	C56.818565,311.477600 67.438293,311.417786 78.054756,311.576599 
	C79.040161,311.591309 80.445656,312.785706 80.914551,313.781555 
	C92.355019,338.079437 111.878075,355.538208 131.211914,373.102570 
	C135.587723,377.077911 138.476089,381.567535 140.024261,387.170990 
	C143.946182,401.366211 147.934586,415.543610 151.998657,429.698761 
	C153.076218,433.451904 154.523758,437.098846 155.971161,441.285614 
	C141.462219,442.937347 127.768814,442.372406 116.221558,432.514069 
	C97.142166,416.225189 80.296310,397.923035 66.716263,376.282471 
z"/>
<path fill="#FFFFFF" opacity="1.000000" stroke="none" 
	d="
M339.622314,57.105648 
	C338.752014,64.517563 337.881714,71.929482 337.055176,78.968842 
	C325.986450,80.782120 315.074066,81.891632 304.522980,84.476196 
	C292.335175,87.461700 280.377655,91.490044 268.491180,95.564507 
	C261.348053,98.013031 255.211945,97.519196 248.668930,93.484596 
	C235.085571,85.108727 219.700531,82.421631 204.080536,81.034531 
	C196.342072,80.347328 188.569107,80.048592 180.207962,79.537170 
	C180.207962,72.566246 180.207962,65.788490 180.584244,58.470215 
	C183.658600,56.335663 186.177856,54.215691 189.082184,53.228348 
	C220.768097,42.456570 253.236755,38.714729 286.280548,44.688263 
	C304.223053,47.931831 321.851959,52.909931 339.622314,57.105648 
z"/>
<path fill="#D9D9D9" opacity="1.000000" stroke="none" 
	d="
M221.146042,337.296204 
	C232.450272,339.900574 243.705841,342.825348 254.935654,345.845825 
	C261.525391,347.618256 268.045837,349.652008 274.649231,351.369110 
	C281.443817,353.135925 287.593201,351.548584 292.722961,346.808319 
	C307.387146,333.257599 321.950256,319.597504 336.568665,305.997192 
	C339.491180,303.278198 342.356201,300.474915 345.470459,297.989624 
	C350.853424,293.693909 351.770050,288.449951 350.299713,281.941986 
	C345.238678,259.540894 340.489044,237.069366 335.653198,214.617691 
	C335.305481,213.003311 335.219238,211.332626 335.057312,209.256607 
	C341.825104,211.145859 348.602905,213.319519 355.247223,215.844528 
	C359.022980,217.279434 361.171600,220.187225 362.065338,224.350479 
	C367.489410,249.617325 373.099182,274.844299 378.633423,300.087524 
	C379.740814,305.138672 378.804443,309.348022 374.723419,313.117340 
	C357.122894,329.373535 339.706848,345.829834 322.262451,362.254547 
	C315.919739,368.226471 308.814514,370.150909 300.280762,367.639771 
	C277.399384,360.906769 254.458923,354.372467 231.508881,347.876038 
	C226.054352,346.332001 222.520508,343.144806 221.146042,337.296204 
z"/>
<path fill="#D8D8D8" opacity="1.000000" stroke="none" 
	d="
M136.220886,233.376663 
	C137.874573,233.113800 139.835815,232.830200 141.650650,233.223022 
	C152.050751,235.474182 162.458710,237.717133 172.773849,240.320084 
	C177.381393,241.482773 180.968933,240.296600 184.148727,237.191238 
	C203.785477,218.013977 223.343094,198.755280 243.054443,179.655136 
	C247.086136,175.748444 246.386963,171.122162 245.756042,166.606369 
	C244.261658,155.910492 242.334549,145.275711 240.647995,134.605835 
	C239.377075,126.565361 237.906738,118.539566 237.080139,110.450523 
	C236.290451,102.722870 233.309540,96.445137 227.067017,91.375206 
	C234.563904,94.173271 242.647675,96.494370 249.539948,100.746666 
	C252.844131,102.785240 255.007309,108.278214 255.774643,112.550255 
	C259.413147,132.806900 262.326324,153.192780 265.649750,173.507767 
	C266.552795,179.027695 265.444885,183.373032 261.208893,187.410950 
	C241.804672,205.907883 222.582275,224.596680 203.406158,243.330750 
	C200.082504,246.577789 196.688507,247.567169 192.148209,246.489487 
	C173.615479,242.090500 155.028091,237.921844 136.220886,233.376663 
z"/>
<path fill="#D9D9D9" opacity="1.000000" stroke="none" 
	d="
M423.251831,325.960266 
	C427.208282,319.833984 431.626892,314.008850 435.718353,307.962372 
	C440.569702,300.792938 445.328064,293.545929 449.775024,286.121857 
	C453.794952,279.410614 455.533173,272.063568 455.006683,264.114624 
	C453.269745,237.891159 449.090027,212.234558 439.168549,187.677536 
	C436.140930,180.183731 432.060333,174.604980 424.274475,171.385101 
	C416.009033,167.966873 408.224518,163.385803 400.059937,158.988983 
	C402.150146,154.351501 405.507538,152.925858 410.018219,155.042282 
	C423.074982,161.168488 436.100555,167.373611 448.950226,173.917206 
	C451.217285,175.071716 453.151550,177.743164 454.266357,180.162506 
	C464.508789,202.391022 470.119202,225.831497 472.009277,250.195740 
	C472.343964,254.510254 472.509613,258.844849 473.030365,263.136536 
	C474.109283,272.028534 471.626190,280.106659 466.801483,287.275024 
	C458.168915,300.100891 449.182159,312.696716 440.049957,325.173920 
	C436.234161,330.387390 432.880066,330.308868 423.251831,325.960266 
z"/>
<path fill="#D8D8D8" opacity="1.000000" stroke="none" 
	d="
M159.351730,433.251587 
	C168.527359,436.619446 177.714554,440.466858 187.019272,444.005157 
	C202.799438,450.005859 219.111221,454.127716 235.984375,454.854584 
	C257.853302,455.796692 276.928375,447.621796 294.338898,435.022369 
	C297.567505,432.685913 300.482086,429.883881 303.832733,427.754852 
	C309.687103,424.034882 309.992889,418.791656 308.462585,412.948120 
	C305.388763,401.210602 302.211273,389.500305 299.098724,377.772858 
	C298.674042,376.172729 298.376587,374.538879 297.988892,372.527588 
	C306.567688,372.783325 310.974457,377.389832 312.888763,385.891113 
	C316.197815,400.586365 320.324341,415.101105 324.275848,429.645966 
	C325.527405,434.252594 324.359802,437.550720 320.687500,440.587280 
	C305.806000,452.892365 289.990967,463.276123 270.688049,467.391724 
	C254.273239,470.891541 238.263748,468.570557 222.352432,464.611084 
	C202.926392,459.777008 184.531021,452.110107 166.812424,442.959106 
	C163.593124,441.296448 161.843979,436.787231 159.351730,433.251587 
z"/>
<path fill="#FFFFFF" opacity="1.000000" stroke="none" 
	d="
M445.920105,164.059082 
	C432.537415,158.793457 419.091705,153.678268 405.830811,148.121918 
	C403.477325,147.135788 401.327271,144.626266 400.040649,142.292435 
	C387.383545,119.332939 370.428986,100.287659 348.957916,85.242889 
	C344.626556,82.207939 342.902069,78.010658 343.544098,72.708214 
	C344.178772,67.466255 344.554932,62.192997 345.287598,56.820091 
	C345.480713,61.310406 348.155518,63.561398 352.049988,65.597115 
	C371.794891,75.918159 389.526459,89.131111 405.172882,104.932152 
	C421.411682,121.331383 434.761383,139.971298 445.499756,160.428101 
	C446.028137,161.434616 445.797363,162.839630 445.920105,164.059082 
z"/>
<path fill="#D7D7D8" opacity="1.000000" stroke="none" 
	d="
M364.388611,454.418457 
	C324.979034,474.985077 270.692810,486.980957 253.458450,478.217712 
	C256.810516,476.670959 259.396790,474.601105 262.151276,474.345795 
	C283.313477,472.384338 301.439606,463.144165 317.504089,450.166290 
	C328.753479,441.078369 341.572418,438.218048 355.090027,436.001709 
	C373.904358,432.916992 391.890717,427.426880 407.897217,416.546692 
	C409.368835,415.546417 411.656952,415.747314 413.846710,416.225037 
	C399.636047,432.075775 383.019836,444.261383 364.388611,454.418457 
z"/>
<path fill="#D7D7D8" opacity="1.000000" stroke="none" 
	d="
M453.792358,315.791687 
	C462.692749,302.198608 471.384552,288.899597 480.076355,275.600555 
	C477.102905,318.356750 462.766357,356.781464 437.212158,390.931396 
	C431.476105,398.596893 425.962494,406.606750 418.324554,412.540161 
	C417.641144,412.187103 416.957764,411.834015 416.274353,411.480957 
	C417.174347,408.161133 417.544708,404.573547 419.064819,401.567291 
	C426.130341,387.594269 433.577881,373.518005 435.361481,357.916016 
	C437.206848,341.773773 443.979980,328.486725 453.792358,315.791687 
z"/>
<path fill="#D8D8D9" opacity="1.000000" stroke="none" 
	d="
M446.169373,164.324188 
	C445.797363,162.839630 446.028137,161.434616 445.499756,160.428101 
	C434.761383,139.971298 421.411682,121.331383 405.172882,104.932152 
	C389.526459,89.131111 371.794891,75.918159 352.049988,65.597115 
	C348.155518,63.561398 345.480713,61.310406 345.344482,56.394272 
	C345.337250,54.664593 345.516235,53.247356 345.779877,51.159763 
	C348.926514,52.354774 351.585419,53.132175 354.038635,54.330685 
	C399.007843,76.300133 433.054810,109.570488 456.418335,153.762161 
	C457.686646,156.161133 458.583832,159.633240 457.836731,162.042328 
	C456.164856,167.433731 454.809387,167.478348 446.169373,164.324188 
z"/>
<path fill="#D7D8D8" opacity="1.000000" stroke="none" 
	d="
M339.755615,56.683968 
	C321.851959,52.909931 304.223053,47.931831 286.280548,44.688263 
	C253.236755,38.714729 220.768097,42.456570 189.082184,53.228348 
	C186.177856,54.215691 183.658600,56.335663 180.635971,58.009953 
	C179.647812,47.024109 180.708389,45.669567 192.064697,42.048286 
	C231.848404,29.362103 271.785706,29.156713 311.908203,40.358498 
	C318.614044,42.230694 325.410522,43.776062 332.149017,45.534061 
	C339.671387,47.496563 340.293884,48.402035 339.755615,56.683968 
z"/>
<path fill="#D8D8D8" opacity="1.000000" stroke="none" 
	d="
M127.265694,231.170547 
	C129.271698,231.318756 131.524338,231.744019 133.923950,232.467773 
	C131.884720,232.326706 129.698532,231.887146 127.265694,231.170547 
z"/>
<path fill="#D8D8D8" opacity="1.000000" stroke="none" 
	d="
M119.183418,229.202271 
	C119.652008,229.063858 120.294678,229.178787 121.004608,229.527344 
	C120.500412,229.659180 119.928955,229.557404 119.183418,229.202271 
z"/>
<path fill="#D8D8D8" opacity="1.000000" stroke="none" 
	d="
M123.161591,230.240219 
	C123.650299,230.075012 124.297394,230.173767 125.009003,230.513397 
	C124.489006,230.670929 123.904488,230.587555 123.161591,230.240219 
z"/>
</svg>