<svg version="1.1" id="Layer_1" xmlns="http://www.w3.org/2000/svg" xmlns:xlink="http://www.w3.org/1999/xlink" x="0px" y="0px"
	 width="100%" viewBox="0 0 512 512" enable-background="new 0 0 512 512" xml:space="preserve">
<path fill="#EBC776" opacity="1.000000" stroke="none" 
	d="
M297.022858,319.115784 
	C290.877075,326.741882 282.623444,329.409088 273.134674,330.147339 
	C267.292053,330.601959 261.561584,332.498383 255.134338,334.044373 
	C248.596115,338.537933 247.080307,344.480896 248.613770,351.078186 
	C250.301041,358.337189 252.513199,365.486633 254.763321,372.599426 
	C258.030609,382.927521 259.193878,393.327728 256.776642,403.997955 
	C256.066071,407.134583 255.470749,410.297272 254.822601,413.448029 
	C254.822617,413.448029 254.781113,413.697937 254.340775,413.765930 
	C253.605499,414.598053 253.310562,415.362213 253.015656,416.126373 
	C249.014130,421.247223 245.347687,426.678192 240.948792,431.431305 
	C227.280869,446.199707 210.506424,448.713928 191.778732,443.394623 
	C172.192612,437.831512 155.648575,426.685303 140.131256,414.251892 
	C129.979019,406.117340 120.295471,396.833313 112.446648,386.509644 
	C97.492271,366.839966 100.696465,345.320343 115.048309,326.452362 
	C115.831688,325.422485 116.523392,324.322815 117.804192,322.924622 
	C118.555969,322.038330 118.761337,321.483063 118.966705,320.927795 
	C118.966705,320.927795 118.983719,320.991394 119.173805,320.858032 
	C119.570320,320.452881 119.776749,320.181091 119.983185,319.909332 
	C119.983192,319.909332 119.983978,319.985596 120.170975,319.855896 
	C120.566734,319.454376 120.775497,319.182587 120.984253,318.910767 
	C120.984253,318.910767 120.985237,318.979034 121.300583,318.925842 
	C126.213501,315.931274 130.606430,312.584137 135.454529,310.139587 
	C143.617981,306.023376 152.568558,305.324310 161.610901,304.900360 
	C169.845551,304.514252 178.181793,303.930847 186.202560,302.188385 
	C191.453598,301.047607 195.387070,296.984894 195.943314,290.894958 
	C195.457123,286.917084 195.718842,282.657196 194.345169,279.013947 
	C190.145309,267.875031 189.426895,257.067810 195.795853,245.957123 
	C196.559097,245.042328 196.762512,244.483322 196.965942,243.924316 
	C196.965942,243.924316 196.984192,243.988129 197.297974,243.932281 
	C200.418320,241.573853 203.048904,239.004898 206.061707,237.014450 
	C219.611145,228.062759 233.873077,229.765106 248.200989,234.699860 
	C252.587494,236.210648 256.795776,238.238983 261.235260,240.328430 
	C265.622131,243.547989 269.829926,246.513504 274.107727,249.374390 
	C276.680725,251.095108 279.362671,252.652817 282.061920,254.596954 
	C284.450897,257.473755 286.825775,259.992371 289.087189,262.609009 
	C298.072693,273.005768 305.166931,284.328979 303.862213,298.774200 
	C303.364990,304.279327 301.358246,309.648132 300.039429,315.079071 
	C300.039429,315.079071 300.028778,315.009033 299.825439,315.205688 
	C299.416718,315.976929 299.211334,316.551575 299.005920,317.126190 
	C298.993317,317.460144 298.844788,317.714905 298.109863,318.084290 
	C297.447174,318.557373 297.235016,318.836578 297.022858,319.115784 
M223.493790,404.595398 
	C222.478806,403.265472 221.714584,401.581848 220.411621,400.658051 
	C196.949829,384.022644 173.422287,367.479950 149.910370,350.915192 
	C142.927429,345.995483 142.926819,345.990540 138.362442,353.089325 
	C138.013596,353.631897 137.744751,354.225891 137.214630,355.213501 
	C138.423813,355.894684 139.513123,356.508362 141.042465,357.671661 
	C142.187500,358.626099 143.272156,359.666199 144.486603,360.522156 
	C163.202866,373.713531 181.928131,386.892212 200.669952,400.047302 
	C206.442474,404.099091 212.270782,408.071411 218.345917,412.268280 
	C220.191223,409.468475 221.640915,407.268951 223.493790,404.595398 
M261.057434,290.672363 
	C259.948700,288.637421 259.040649,286.458282 257.698883,284.590790 
	C248.551254,271.859283 230.760742,270.226837 220.398972,281.091858 
	C212.033859,289.863220 213.315369,303.028076 223.506958,313.020172 
	C231.292740,320.653564 243.403809,322.306824 252.505890,316.978760 
	C261.193298,311.893433 264.351715,302.708496 261.057434,290.672363 
z"/>
<path fill="#BA594A" opacity="1.000000" stroke="none" 
	d="
M281.995667,254.283783 
	C279.362671,252.652817 276.680725,251.095108 274.107727,249.374390 
	C269.829926,246.513504 265.622131,243.547989 261.512878,240.147186 
	C263.413208,236.763184 265.185486,233.858566 266.957764,230.953964 
	C277.275787,216.422348 287.619843,201.909119 297.905731,187.354797 
	C312.900543,166.137405 327.853485,144.890457 343.318756,123.415588 
	C344.738220,123.829033 345.640900,124.517578 346.591858,125.131340 
	C352.740906,129.099945 358.900452,133.052200 365.056549,137.009827 
	C356.766693,148.767014 348.482330,160.528030 340.185822,172.280533 
	C323.308716,196.187958 306.423737,220.089859 289.555023,244.003235 
	C289.281647,244.390808 289.174164,244.895416 288.584167,245.747467 
	C286.117920,248.860947 284.056793,251.572372 281.995667,254.283783 
z"/>
<path fill="#963B2C" opacity="1.000000" stroke="none" 
	d="
M365.451111,137.006210 
	C358.900452,133.052200 352.740906,129.099945 346.591858,125.131340 
	C345.640900,124.517578 344.738220,123.829033 343.485504,123.112549 
	C341.385315,119.268959 341.614288,115.624939 344.304871,111.618126 
	C345.424774,109.764542 346.145813,108.414978 346.866852,107.065399 
	C348.812317,103.637558 350.757812,100.209732 353.171631,96.297302 
	C354.273376,94.571884 354.906799,93.331085 355.540222,92.090286 
	C357.345917,88.671875 359.151581,85.253464 361.315765,81.364975 
	C362.626251,79.629425 363.578186,78.363960 364.530151,77.098495 
	C368.792938,69.833504 374.439087,68.457291 381.308990,73.163422 
	C387.145538,77.161636 392.903595,81.275993 398.652283,85.400459 
	C404.517670,89.608643 405.164886,94.282654 400.548523,101.690735 
	C399.115448,103.706284 398.081177,105.255585 397.046875,106.804886 
	C394.464294,109.616966 391.881714,112.429031 388.827362,115.666534 
	C387.569946,117.331062 386.784302,118.570160 385.998657,119.809258 
	C383.424774,122.635185 380.850891,125.461113 377.818634,128.728439 
	C376.397827,130.413727 375.435394,131.657608 374.472961,132.901520 
	C371.597229,134.268555 368.721466,135.635574 365.451111,137.006210 
z"/>
<path fill="#EBA476" opacity="1.000000" stroke="none" 
	d="
M266.587158,230.968842 
	C265.185486,233.858566 263.413208,236.763184 261.363312,239.849060 
	C256.795776,238.238983 252.587494,236.210648 248.200989,234.699860 
	C233.873077,229.765106 219.611145,228.062759 206.061707,237.014450 
	C203.048904,239.004898 200.418320,241.573853 197.266357,243.922211 
	C203.620651,230.213394 215.013412,223.316498 229.886185,222.064285 
	C242.908707,220.967880 254.802994,225.164703 266.587158,230.968842 
z"/>
<path fill="#EBA476" opacity="1.000000" stroke="none" 
	d="
M282.061920,254.596954 
	C284.056793,251.572372 286.117920,248.860947 288.509155,246.103699 
	C294.208588,252.606476 300.298676,258.699677 304.787659,265.804474 
	C312.609009,278.183472 311.382568,291.456573 306.034729,304.510590 
	C304.575043,308.073700 302.494446,311.382446 300.369110,314.943481 
	C301.358246,309.648132 303.364990,304.279327 303.862213,298.774200 
	C305.166931,284.328979 298.072693,273.005768 289.087189,262.609009 
	C286.825775,259.992371 284.450897,257.473755 282.061920,254.596954 
z"/>
<path fill="#EBA476" opacity="1.000000" stroke="none" 
	d="
M195.616425,291.046082 
	C195.387070,296.984894 191.453598,301.047607 186.202560,302.188385 
	C178.181793,303.930847 169.845551,304.514252 161.610901,304.900360 
	C152.568558,305.324310 143.617981,306.023376 135.454529,310.139587 
	C130.606430,312.584137 126.213501,315.931274 121.267029,318.919586 
	C124.686745,314.966034 128.045532,310.448547 132.307358,307.070190 
	C141.836975,299.516052 153.309998,297.671143 165.144470,296.911865 
	C173.555695,296.372192 181.931824,295.128540 190.281342,293.909576 
	C192.045135,293.652100 193.624939,292.134277 195.616425,291.046082 
z"/>
<path fill="#EBA476" opacity="1.000000" stroke="none" 
	d="
M255.096313,413.253296 
	C255.470749,410.297272 256.066071,407.134583 256.776642,403.997955 
	C259.193878,393.327728 258.030609,382.927521 254.763321,372.599426 
	C252.513199,365.486633 250.301041,358.337189 248.613770,351.078186 
	C247.080307,344.480896 248.596115,338.537933 254.798050,334.200073 
	C253.365692,341.452515 255.952118,348.311646 257.662567,355.298950 
	C259.849823,364.234131 262.689026,373.107483 263.795868,382.184448 
	C265.154388,393.325195 260.927124,403.507599 255.096313,413.253296 
z"/>
<path fill="#C6D7E0" opacity="1.000000" stroke="none" 
	d="
M364.249207,76.829720 
	C363.578186,78.363960 362.626251,79.629425 361.346375,81.011597 
	C358.781677,79.740364 356.870605,76.316231 353.826019,79.977692 
	C352.567596,78.224205 350.114929,76.358742 350.266937,74.737511 
	C350.796875,69.085732 355.508820,66.988716 361.128204,69.608139 
	C358.157837,73.477585 361.420959,74.860695 364.249207,76.829720 
z"/>
<path fill="#C6D7E0" opacity="1.000000" stroke="none" 
	d="
M374.750793,133.167587 
	C375.435394,131.657608 376.397827,130.413727 377.670288,129.023468 
	C380.149078,129.654297 381.632904,134.307373 384.689178,130.062775 
	C386.113251,131.331329 388.234192,132.346115 388.808777,133.923996 
	C389.841125,136.758926 385.231781,142.144882 382.130005,141.880585 
	C380.767914,141.764496 379.514465,140.373291 378.211700,139.561050 
	C380.898956,135.571442 376.464325,135.281509 374.750793,133.167587 
z"/>
<path fill="#C6D7E0" opacity="1.000000" stroke="none" 
	d="
M346.545990,106.946465 
	C346.145813,108.414978 345.424774,109.764542 344.409515,111.273483 
	C342.528870,110.296257 340.942444,109.159660 339.111023,107.847542 
	C338.180511,108.521492 337.163696,109.257950 335.783356,110.257690 
	C334.859070,109.176514 333.484375,108.245850 333.123718,107.017464 
	C332.110596,103.566391 333.680939,100.715118 336.613617,99.116798 
	C337.984894,98.369438 340.317108,98.514740 341.790497,99.185410 
	C342.549896,99.531075 342.381989,101.913811 342.686737,103.688438 
	C343.587830,104.487862 344.906464,105.657692 346.545990,106.946465 
z"/>
<path fill="#C6D7E0" opacity="1.000000" stroke="none" 
	d="
M397.400818,106.868713 
	C398.081177,105.255585 399.115448,103.706284 400.450287,102.050568 
	C402.742432,104.634148 404.871887,106.446480 408.547394,101.813202 
	C409.569244,104.563812 411.249878,106.780502 410.770599,108.328468 
	C410.016785,110.763321 408.233246,113.528732 406.091370,114.693527 
	C404.127625,115.761452 400.703613,115.892670 401.044373,111.238365 
	C401.143066,109.890594 398.915771,108.372536 397.400818,106.868713 
z"/>
<path fill="#C6D7E0" opacity="1.000000" stroke="none" 
	d="
M355.255127,91.825745 
	C354.906799,93.331085 354.273376,94.571884 353.348511,96.006798 
	C351.838165,95.422546 350.679901,94.513535 349.379700,93.910553 
	C348.473358,93.490211 347.365417,93.308319 346.360260,93.347504 
	C345.127502,93.395576 343.236694,94.375031 342.823029,93.904129 
	C341.969177,92.932167 341.419464,91.197662 341.601166,89.896446 
	C342.419800,84.033707 346.515198,81.968376 352.148651,84.633316 
	C348.939392,88.592361 352.578857,89.801445 355.255127,91.825745 
z"/>
<path fill="#C6D7E0" opacity="1.000000" stroke="none" 
	d="
M386.325806,119.939972 
	C386.784302,118.570160 387.569946,117.331062 388.641937,115.934418 
	C390.161621,116.525986 391.344482,117.386650 392.649475,117.977486 
	C393.309814,118.276459 394.222626,118.239258 394.964844,118.084076 
	C396.077850,117.851349 397.141205,117.381104 398.225708,117.011856 
	C398.796539,118.745819 400.059784,120.589119 399.806549,122.192955 
	C399.087646,126.745544 394.906921,128.646164 389.340118,127.100357 
	C389.777008,125.840332 390.208679,124.595337 390.695770,123.190491 
	C389.451874,122.230591 388.052399,121.150642 386.325806,119.939972 
z"/>
<path fill="#EBA476" opacity="1.000000" stroke="none" 
	d="
M253.295288,416.017181 
	C253.310562,415.362213 253.605499,414.598053 254.219696,413.803162 
	C254.217636,414.484253 253.896286,415.196136 253.295288,416.017181 
z"/>
<path fill="#EBA476" opacity="1.000000" stroke="none" 
	d="
M196.667694,244.039581 
	C196.762512,244.483322 196.559097,245.042328 196.115631,245.786713 
	C196.040207,245.366348 196.204834,244.760605 196.667694,244.039581 
z"/>
<path fill="#EBA476" opacity="1.000000" stroke="none" 
	d="
M299.308167,316.997589 
	C299.211334,316.551575 299.416718,315.976929 299.860718,315.202515 
	C299.936371,315.624786 299.773376,316.246887 299.308167,316.997589 
z"/>
<path fill="#EBA476" opacity="1.000000" stroke="none" 
	d="
M118.672127,321.046509 
	C118.761337,321.483063 118.555969,322.038330 118.114227,322.781281 
	C118.044426,322.367706 118.210991,321.766479 118.672127,321.046509 
z"/>
<path fill="#EBA476" opacity="1.000000" stroke="none" 
	d="
M297.284729,319.023560 
	C297.235016,318.836578 297.447174,318.557373 297.889130,318.144989 
	C297.928131,318.318329 297.737366,318.624817 297.284729,319.023560 
z"/>
<path fill="#EBA476" opacity="1.000000" stroke="none" 
	d="
M120.720436,318.989502 
	C120.775497,319.182587 120.566734,319.454376 120.132851,319.855591 
	C120.090691,319.679413 120.273651,319.373840 120.720436,318.989502 
z"/>
<path fill="#EBA476" opacity="1.000000" stroke="none" 
	d="
M119.719742,319.988373 
	C119.776749,320.181091 119.570320,320.452881 119.140991,320.855530 
	C119.097496,320.680054 119.276901,320.373718 119.719742,319.988373 
z"/>
<path fill="#E7D674" opacity="1.000000" stroke="none" 
	d="
M261.175354,291.048279 
	C264.351715,302.708496 261.193298,311.893433 252.505890,316.978760 
	C243.403809,322.306824 231.292740,320.653564 223.506958,313.020172 
	C213.315369,303.028076 212.033859,289.863220 220.398972,281.091858 
	C230.760742,270.226837 248.551254,271.859283 257.698883,284.590790 
	C259.040649,286.458282 259.948700,288.637421 261.175354,291.048279 
M235.039673,278.621338 
	C221.620117,281.024109 216.545181,292.564941 223.971283,303.995911 
	C228.079742,310.319977 234.150375,313.572906 241.580597,313.794830 
	C253.312286,314.145294 260.450256,304.553986 257.080841,293.329468 
	C254.321411,284.136963 246.585648,278.740051 235.039673,278.621338 
z"/>
<path fill="#CC7F4D" opacity="1.000000" stroke="none" 
	d="
M140.602432,357.122040 
	C139.513123,356.508362 138.423813,355.894684 137.214630,355.213501 
	C137.744751,354.225891 138.013596,353.631897 138.362442,353.089325 
	C142.926819,345.990540 142.927429,345.995483 149.910370,350.915192 
	C173.422287,367.479950 196.949829,384.022644 220.411621,400.658051 
	C221.714584,401.581848 222.478806,403.265472 223.048096,404.631653 
	C219.520370,404.215973 216.851120,406.455719 213.182297,403.757874 
	C191.736053,387.987640 169.816391,372.862366 148.143295,357.397766 
	C145.461945,355.484558 143.202789,354.963898 140.602432,357.122040 
z"/>
<path fill="#B47043" opacity="1.000000" stroke="none" 
	d="
M140.822449,357.396851 
	C143.202789,354.963898 145.461945,355.484558 148.143295,357.397766 
	C169.816391,372.862366 191.736053,387.987640 213.182297,403.757874 
	C216.851120,406.455719 219.520370,404.215973 222.846497,404.868652 
	C221.640915,407.268951 220.191223,409.468475 218.345917,412.268280 
	C212.270782,408.071411 206.442474,404.099091 200.669952,400.047302 
	C181.928131,386.892212 163.202866,373.713531 144.486603,360.522156 
	C143.272156,359.666199 142.187500,358.626099 140.822449,357.396851 
z"/>
<path fill="#774C2F" opacity="1.000000" stroke="none" 
	d="
M235.431702,278.560303 
	C246.585648,278.740051 254.321411,284.136963 257.080841,293.329468 
	C260.450256,304.553986 253.312286,314.145294 241.580597,313.794830 
	C234.150375,313.572906 228.079742,310.319977 223.971283,303.995911 
	C216.545181,292.564941 221.620117,281.024109 235.431702,278.560303 
z"/>
</svg>