<svg version="1.1" id="Layer_1" xmlns="http://www.w3.org/2000/svg" xmlns:xlink="http://www.w3.org/1999/xlink" x="0px" y="0px"
	 width="100%" viewBox="0 0 512 512" enable-background="new 0 0 512 512" xml:space="preserve">
<path fill="#D49B6B" opacity="1.000000" stroke="none" 
	d="
M289.017456,162.934647 
	C299.202240,166.116653 309.133423,169.720123 318.031281,175.932785 
	C328.670380,183.361252 335.364471,192.845490 335.604950,206.815430 
	C332.243256,222.476303 322.309875,231.799179 309.336212,238.244293 
	C288.425354,248.632507 266.207245,251.710373 242.671082,249.042648 
	C238.807709,248.509399 235.244492,248.435043 231.983688,247.404099 
	C221.605286,244.122696 211.339432,240.485291 200.857147,236.696136 
	C195.305130,231.556992 189.605148,227.007706 184.671600,221.740540 
	C181.870682,218.750229 180.324890,214.584305 178.213852,210.947815 
	C178.186661,210.212936 178.159470,209.478043 178.295227,208.271576 
	C178.590454,207.445435 178.484634,207.174118 178.140747,206.986023 
	C178.306442,193.236481 185.123917,183.522964 196.141998,175.876785 
	C204.801392,169.867432 214.343582,166.217819 224.634720,163.553345 
	C225.008698,170.192291 225.031006,176.503937 225.018600,182.815521 
	C225.007660,188.375748 227.268173,192.694046 231.816879,195.924240 
	C245.256302,205.468033 268.815033,205.504135 282.184082,195.902161 
	C286.619232,192.716705 289.201843,188.606262 289.034210,182.864639 
	C288.840454,176.226791 289.007233,169.578445 289.017456,162.934647 
z"/>
<path fill="#A56D41" opacity="1.000000" stroke="none" 
	d="
M243.109634,249.063690 
	C266.207245,251.710373 288.425354,248.632507 309.336212,238.244293 
	C322.309875,231.799179 332.243256,222.476303 335.544159,207.237396 
	C335.832062,212.613541 335.942230,218.263184 335.939972,223.912796 
	C335.912140,293.612427 335.867889,363.312073 335.450684,433.584076 
	C331.975189,439.343140 329.572784,445.143921 325.642944,449.596741 
	C315.471710,461.121704 301.530579,466.092468 287.121460,470.014740 
	C272.633209,473.958588 257.835358,472.783630 243.074158,472.804321 
	C243.008423,472.350464 242.987183,472.168213 242.984741,471.519745 
	C243.029587,465.364227 243.055664,459.674957 243.544327,453.950348 
	C251.163437,453.948486 258.334900,454.294495 265.473419,453.952637 
	C282.123779,453.155182 297.943329,449.137238 312.675354,441.084839 
	C316.538910,438.973022 318.308929,436.542633 318.290436,431.754272 
	C318.082184,377.823456 318.158630,323.891541 318.158630,269.959900 
	C318.158630,268.220367 318.158630,266.480865 318.158630,263.893066 
	C306.342682,271.169617 294.631226,276.545532 281.805786,277.888702 
	C268.980774,279.231903 256.003204,279.118530 243.074432,279.197693 
	C243.074097,268.855743 243.091858,258.959717 243.109634,249.063690 
z"/>
<path fill="#A46C41" opacity="1.000000" stroke="none" 
	d="
M178.110870,211.409271 
	C180.324890,214.584305 181.870682,218.750229 184.671600,221.740540 
	C189.605148,227.007706 195.305130,231.556992 200.828003,237.165741 
	C200.937561,247.324234 200.903320,256.723846 200.517151,266.047882 
	C198.757172,265.337769 197.349106,264.703247 195.435181,263.840759 
	C195.309982,265.997894 195.152206,267.451294 195.151871,268.904755 
	C195.139297,323.317017 195.192062,377.729370 195.047287,432.141266 
	C195.035385,436.617889 196.747971,438.983063 200.790726,440.410461 
	C200.864197,440.602783 201.005966,440.989441 200.984650,441.457703 
	C200.879715,447.645477 200.796066,453.364990 200.385345,459.007355 
	C189.921539,453.211273 182.581390,445.279114 179.868683,433.617157 
	C179.718735,432.972565 178.831024,432.499573 178.286697,431.946686 
	C178.215958,430.452332 178.083954,428.957977 178.083282,427.463593 
	C178.051010,355.599304 178.030106,283.735016 178.110870,211.409271 
z"/>
<path fill="#EB951C" opacity="1.000000" stroke="none" 
	d="
M218.166321,100.006340 
	C218.117981,83.974388 218.069656,67.942429 218.321625,51.703228 
	C220.419464,57.638023 224.727921,61.611065 230.117828,64.549049 
	C242.950897,71.544228 256.663086,72.651093 270.623932,69.493393 
	C281.516174,67.029762 291.568207,62.770535 295.824036,50.970985 
	C295.867493,67.008522 295.910980,83.046051 295.675598,99.821960 
	C293.413513,109.893219 286.683746,114.782372 278.503571,117.928337 
	C268.108398,121.926155 257.276520,122.962914 246.314423,120.824837 
	C233.698273,118.364143 222.193176,114.181297 218.166321,100.006340 
z"/>
<path fill="#F6AE48" opacity="1.000000" stroke="none" 
	d="
M295.889526,50.556084 
	C291.568207,62.770535 281.516174,67.029762 270.623932,69.493393 
	C256.663086,72.651093 242.950897,71.544228 230.117828,64.549049 
	C224.727921,61.611065 220.419464,57.638023 218.398346,51.239037 
	C216.950760,43.463974 220.893982,37.928303 226.469162,34.392982 
	C244.644012,22.868000 271.163391,22.847704 288.667206,35.400700 
	C293.443756,38.826244 296.360687,43.827339 295.889526,50.556084 
z"/>
<path fill="#DADEFD" opacity="1.000000" stroke="none" 
	d="
M288.981018,120.189064 
	C288.956726,131.128006 288.932434,142.066940 288.649445,153.718536 
	C284.860016,157.976593 281.922852,162.683716 277.686554,164.848206 
	C265.292755,171.180634 252.176285,170.986725 239.150909,166.336075 
	C232.837845,164.082016 227.854324,160.202820 225.185013,153.814651 
	C225.127228,142.914139 225.069443,132.013626 225.355850,120.688019 
	C230.441071,122.553444 234.968643,125.619179 239.961807,126.993820 
	C257.160095,131.728607 273.701202,130.082001 288.981018,120.189064 
z"/>
<path fill="#A56D42" opacity="1.000000" stroke="none" 
	d="
M225.089905,154.267883 
	C227.854324,160.202820 232.837845,164.082016 239.150909,166.336075 
	C252.176285,170.986725 265.292755,171.180634 277.686554,164.848206 
	C281.922852,162.683716 284.860016,157.976593 288.614502,154.181854 
	C288.892609,156.633713 288.947021,159.334869 289.009460,162.485352 
	C289.007233,169.578445 288.840454,176.226791 289.034210,182.864639 
	C289.201843,188.606262 286.619232,192.716705 282.184082,195.902161 
	C268.815033,205.504135 245.256302,205.468033 231.816879,195.924240 
	C227.268173,192.694046 225.007660,188.375748 225.018600,182.815521 
	C225.031006,176.503937 225.008698,170.192291 224.991989,163.407913 
	C224.986603,160.197159 224.990707,157.459137 225.089905,154.267883 
z"/>
<path fill="#854E31" opacity="1.000000" stroke="none" 
	d="
M243.118683,473.075928 
	C257.835358,472.783630 272.633209,473.958588 287.121460,470.014740 
	C301.530579,466.092468 315.471710,461.121704 325.642944,449.596741 
	C329.572784,445.143921 331.975189,439.343140 335.399658,434.045807 
	C337.683380,452.272217 329.164703,465.103668 313.965973,473.912720 
	C300.407471,481.771057 285.634155,486.133057 269.910126,487.005951 
	C264.136566,487.326447 258.366882,487.829620 252.589890,487.929871 
	C249.664673,487.980591 246.727127,487.319824 243.394592,486.462341 
	C243.035568,481.654633 243.077118,477.365265 243.118683,473.075928 
z"/>
<path fill="#D67E03" opacity="1.000000" stroke="none" 
	d="
M289.294495,120.028625 
	C273.701202,130.082001 257.160095,131.728607 239.961807,126.993820 
	C234.968643,125.619179 230.441071,122.553444 225.363159,120.232018 
	C218.494064,115.292389 217.585815,108.340309 218.090393,100.454414 
	C222.193176,114.181297 233.698273,118.364143 246.314423,120.824837 
	C257.276520,122.962914 268.108398,121.926155 278.503571,117.928337 
	C286.683746,114.782372 293.413513,109.893219 295.617096,100.288376 
	C296.644836,107.538643 296.064606,114.625420 289.294495,120.028625 
z"/>
<path fill="#A9836D" opacity="1.000000" stroke="none" 
	d="
M243.074158,472.804321 
	C243.077118,477.365265 243.035568,481.654633 242.968903,486.397461 
	C227.711243,485.746735 213.378494,481.732819 200.428131,473.039062 
	C200.743744,468.589813 200.930862,464.765625 201.485611,460.964172 
	C203.381409,461.562744 204.925842,462.099060 206.435165,462.720673 
	C218.170731,467.553802 230.016724,471.941589 242.965958,471.985992 
	C242.987183,472.168213 243.008423,472.350464 243.074158,472.804321 
z"/>
<path fill="#895734" opacity="1.000000" stroke="none" 
	d="
M201.117950,460.941406 
	C200.930862,464.765625 200.743744,468.589813 200.281738,472.722473 
	C188.676666,467.874603 181.530441,459.227905 179.138458,447.031860 
	C178.233276,442.416656 178.412170,437.588806 178.191803,432.402283 
	C178.831024,432.499573 179.718735,432.972565 179.868683,433.617157 
	C182.581390,445.279114 189.921539,453.211273 200.470901,459.313110 
	C200.961670,460.111176 201.039810,460.526276 201.117950,460.941406 
z"/>
<path fill="#A46C41" opacity="1.000000" stroke="none" 
	d="
M178.086426,207.246262 
	C178.484634,207.174118 178.590454,207.445435 178.330383,207.905060 
	C178.145737,207.842255 178.088913,207.674377 178.086426,207.246262 
z"/>
<path fill="#BF987A" opacity="1.000000" stroke="none" 
	d="
M200.869080,266.123474 
	C200.903320,256.723846 200.937561,247.324234 201.000946,237.455032 
	C211.339432,240.485291 221.605286,244.122696 231.983688,247.404099 
	C235.244492,248.435043 238.807709,248.509399 242.671082,249.042648 
	C243.091858,258.959717 243.074097,268.855743 243.049240,279.302246 
	C243.042145,279.852753 242.977570,280.057922 242.586014,279.959717 
	C227.762848,277.840973 213.849030,274.154053 200.958221,266.826477 
	C200.922607,266.592926 200.869080,266.123474 200.869080,266.123474 
z"/>
<path fill="#FDCB4F" opacity="1.000000" stroke="none" 
	d="
M243.067322,279.748169 
	C256.003204,279.118530 268.980774,279.231903 281.805786,277.888702 
	C294.631226,276.545532 306.342682,271.169617 318.158630,263.893066 
	C318.158630,266.480865 318.158630,268.220367 318.158630,269.959900 
	C318.158630,323.891541 318.082184,377.823456 318.290436,431.754272 
	C318.308929,436.542633 316.538910,438.973022 312.675354,441.084839 
	C297.943329,449.137238 282.123779,453.155182 265.473419,453.952637 
	C258.334900,454.294495 251.163437,453.948486 243.508362,453.733154 
	C243.009811,453.551331 242.944504,453.115540 242.968140,452.761597 
	C242.993149,451.703094 242.994522,450.998535 243.407166,450.287964 
	C250.787247,450.510956 257.789276,451.283478 264.718170,450.859863 
	C280.942963,449.867920 296.552765,446.339508 310.952637,438.268799 
	C314.244446,436.423828 315.134155,434.304199 315.127533,430.764404 
	C315.030701,379.006836 315.063812,327.248993 315.049072,275.491241 
	C315.048584,273.787872 314.870117,272.084534 314.756287,270.053619 
	C309.061737,272.516113 304.173431,275.044708 299.018829,276.784149 
	C280.835571,282.920166 262.167175,285.144409 243.032471,282.549500 
	C243.009338,281.481323 242.993454,280.769623 242.977570,280.057922 
	C242.977570,280.057922 243.042145,279.852753 243.067322,279.748169 
z"/>
<path fill="#BF987A" opacity="1.000000" stroke="none" 
	d="
M242.944504,453.115540 
	C242.944504,453.115540 243.009811,453.551331 243.045776,453.768494 
	C243.055664,459.674957 243.029587,465.364227 242.984741,471.519745 
	C230.016724,471.941589 218.170731,467.553802 206.435165,462.720673 
	C204.925842,462.099060 203.381409,461.562744 201.485596,460.964172 
	C201.039810,460.526276 200.961670,460.111176 200.797989,459.390259 
	C200.796066,453.364990 200.879715,447.645477 201.315002,441.577545 
	C214.669693,447.817535 228.216537,452.517395 242.944504,453.115540 
z"/>
<path fill="#F3BC4E" opacity="1.000000" stroke="none" 
	d="
M200.517151,266.047882 
	C200.869080,266.123474 200.922607,266.592926 200.940613,267.204865 
	C200.975357,268.829712 200.992096,269.842590 200.967255,270.928162 
	C200.925690,271.000824 200.845474,271.146088 200.545425,271.004211 
	C199.807068,272.154755 198.987061,273.446716 198.985458,274.739655 
	C198.920990,326.808014 198.919815,378.876434 198.977631,430.944794 
	C198.979523,432.654114 199.677643,434.362640 200.169708,436.273376 
	C200.488983,436.720245 200.728394,436.918701 200.981094,437.464722 
	C200.876251,438.645325 200.796753,439.431702 200.717255,440.218109 
	C196.747971,438.983063 195.035385,436.617889 195.047287,432.141266 
	C195.192062,377.729370 195.139297,323.317017 195.151871,268.904755 
	C195.152206,267.451294 195.309982,265.997894 195.435181,263.840759 
	C197.349106,264.703247 198.757172,265.337769 200.517151,266.047882 
z"/>
<path fill="#FCDB83" opacity="1.000000" stroke="none" 
	d="
M200.790710,440.410461 
	C200.796753,439.431702 200.876251,438.645325 201.303253,437.590576 
	C214.510864,444.511749 228.141205,449.197266 242.973816,450.093628 
	C242.990387,450.159058 242.995880,450.293945 242.995880,450.293945 
	C242.994522,450.998535 242.993149,451.703094 242.968140,452.761597 
	C228.216537,452.517395 214.669693,447.817535 201.336319,441.109283 
	C201.005966,440.989441 200.864197,440.602783 200.790710,440.410461 
z"/>
<path fill="#FCDB83" opacity="1.000000" stroke="none" 
	d="
M201.008820,270.855499 
	C200.992096,269.842590 200.975357,268.829712 200.976227,267.438416 
	C213.849030,274.154053 227.762848,277.840973 242.586014,279.959717 
	C242.993454,280.769623 243.009338,281.481323 243.034866,282.596069 
	C243.044510,282.999084 243.029343,283.091064 242.610992,283.045959 
	C227.811584,281.167084 213.990662,277.433929 201.008820,270.855499 
z"/>
<path fill="#FF5754" opacity="1.000000" stroke="none" 
	d="
M243.042114,282.952515 
	C262.167175,285.144409 280.835571,282.920166 299.018829,276.784149 
	C304.173431,275.044708 309.061737,272.516113 314.756287,270.053619 
	C314.870117,272.084534 315.048584,273.787872 315.049072,275.491241 
	C315.063812,327.248993 315.030701,379.006836 315.127533,430.764404 
	C315.134155,434.304199 314.244446,436.423828 310.952637,438.268799 
	C296.552765,446.339508 280.942963,449.867920 264.718170,450.859863 
	C257.789276,451.283478 250.787247,450.510956 243.407166,450.287964 
	C242.995880,450.293945 242.990387,450.159058 242.991791,449.692322 
	C243.020889,447.889740 243.048569,446.553894 243.497406,445.167786 
	C244.750870,445.139740 245.588730,445.107605 246.414658,445.192139 
	C267.076385,447.306366 286.819153,444.165131 305.644440,435.208344 
	C309.022034,433.601349 310.056854,431.556000 310.047943,427.907013 
	C309.931305,380.075378 309.973541,332.243347 309.958130,284.411438 
	C309.957550,282.679169 309.774780,280.946930 309.643707,278.626465 
	C287.729828,287.102905 265.867157,291.044495 243.058319,287.546814 
	C243.035339,285.790894 243.032349,284.440979 243.029343,283.091064 
	C243.029343,283.091064 243.044510,282.999084 243.042114,282.952515 
z"/>
<path fill="#FF8987" opacity="1.000000" stroke="none" 
	d="
M242.610992,283.045959 
	C243.032349,284.440979 243.035339,285.790894 243.044022,287.647949 
	C243.049698,288.155060 243.001572,288.353638 242.577850,288.239929 
	C229.480331,285.388611 216.806519,282.651001 203.985474,279.881561 
	C204.206802,279.359558 204.085144,279.512543 204.085037,279.665588 
	C204.052780,329.630859 204.007568,379.596130 204.112152,429.561157 
	C204.115173,430.999054 205.355637,433.041473 206.616531,433.774658 
	C217.847641,440.305573 230.095779,443.675232 243.012085,444.935272 
	C243.035706,445.029022 243.076263,445.218048 243.076263,445.218048 
	C243.048569,446.553894 243.020889,447.889740 242.975220,449.626892 
	C228.141205,449.197266 214.510864,444.511749 201.328613,437.196381 
	C200.728394,436.918701 200.488983,436.720245 200.433167,435.946167 
	C200.712341,427.444458 200.962677,419.471741 200.961624,411.499115 
	C200.955444,364.714783 200.890564,317.930420 200.845490,271.146088 
	C200.845474,271.146088 200.925690,271.000824 200.967255,270.928162 
	C213.990662,277.433929 227.811584,281.167084 242.610992,283.045959 
z"/>
<path fill="#FF5D5C" opacity="1.000000" stroke="none" 
	d="
M200.545441,271.004211 
	C200.890564,317.930420 200.955444,364.714783 200.961624,411.499115 
	C200.962677,419.471741 200.712341,427.444458 200.314682,435.744324 
	C199.677643,434.362640 198.979523,432.654114 198.977631,430.944794 
	C198.919815,378.876434 198.920990,326.808014 198.985458,274.739655 
	C198.987061,273.446716 199.807068,272.154755 200.545441,271.004211 
z"/>
<path fill="#FFD34F" opacity="1.000000" stroke="none" 
	d="
M243.063995,288.053925 
	C265.867157,291.044495 287.729828,287.102905 309.643707,278.626465 
	C309.774780,280.946930 309.957550,282.679169 309.958130,284.411438 
	C309.973541,332.243347 309.931305,380.075378 310.047943,427.907013 
	C310.056854,431.556000 309.022034,433.601349 305.644440,435.208344 
	C286.819153,444.165131 267.076385,447.306366 246.414658,445.192139 
	C245.588730,445.107605 244.750870,445.139740 243.497406,445.167786 
	C243.076263,445.218048 243.035706,445.029022 243.020355,444.490051 
	C243.006912,440.301453 243.008835,436.651825 243.436111,433.015442 
	C250.647171,433.341614 257.477325,434.279449 264.206787,433.801117 
	C271.748077,433.265015 279.226288,431.583649 286.660889,430.054871 
	C287.922699,429.795380 288.826691,427.795654 289.895996,426.599915 
	C288.517792,426.127625 286.991577,425.006531 285.783966,425.282043 
	C271.638794,428.509064 257.379333,429.404663 242.966461,427.464874 
	C243.023849,424.306885 243.073303,421.597656 243.572464,418.911133 
	C258.284607,419.691742 272.457275,419.429138 286.469513,416.085876 
	C290.086029,415.222992 290.614197,413.530365 289.518585,410.096130 
	C287.282532,410.570251 285.232391,411.050201 283.164703,411.436066 
	C269.903625,413.910767 256.587494,415.151276 243.099243,412.664062 
	C243.140427,409.695343 243.217255,407.193665 243.734772,404.741791 
	C250.996887,404.849823 257.864990,405.431824 264.627594,404.829559 
	C272.520477,404.126587 280.343842,402.503723 288.135040,400.964478 
	C289.176636,400.758728 289.853333,398.705994 290.699036,397.508606 
	C289.463745,397.067383 288.092590,396.029419 287.013733,396.275055 
	C272.484406,399.583557 257.836426,400.585022 243.013992,398.535492 
	C243.052628,391.330231 243.092957,384.593842 243.590042,377.869080 
	C247.703888,377.955688 251.362091,377.995331 255.017853,378.111786 
	C270.127533,378.593170 284.820343,376.400269 298.990692,371.097229 
	C300.496643,370.533691 302.773071,369.115936 302.816162,368.020691 
	C303.139801,359.794922 302.992493,351.550629 302.992493,342.577393 
	C282.990295,349.467163 263.339111,352.584412 243.035187,349.477539 
	C243.024689,343.753021 243.024445,338.491760 243.436798,333.208252 
	C255.447739,332.799072 267.048737,332.469666 278.640350,331.937012 
	C279.809296,331.883331 281.894714,330.625092 281.912720,329.885773 
	C282.138275,320.638245 282.060486,311.383331 282.060486,303.003235 
	C268.571869,303.003235 255.820953,303.003235 243.052612,302.537842 
	C243.024002,297.499512 243.012787,292.926575 243.001587,288.353638 
	C243.001572,288.353638 243.049698,288.155060 243.063995,288.053925 
z"/>
<path fill="#FFE183" opacity="1.000000" stroke="none" 
	d="
M243.133286,377.857422 
	C243.092957,384.593842 243.052628,391.330231 243.028320,398.543152 
	C243.044327,399.019653 243.039871,399.052490 242.618683,399.025574 
	C237.495438,398.170959 232.810028,397.215118 228.080292,396.600372 
	C226.803146,396.434387 225.391602,397.302460 224.041748,397.695923 
	C224.998169,398.952850 225.764496,401.056305 226.943695,401.321075 
	C232.222427,402.506317 237.618759,403.167725 243.055771,404.185364 
	C243.138885,404.352478 243.294113,404.692017 243.294098,404.692017 
	C243.217255,407.193665 243.140427,409.695343 243.111481,412.679291 
	C243.159393,413.161591 243.133301,413.194031 242.689575,413.138977 
	C236.403076,412.195343 230.560318,411.306702 224.533951,410.390167 
	C223.378250,413.492584 223.875351,415.499329 227.527298,416.087189 
	C232.738678,416.926086 237.927490,417.905151 243.137314,418.841492 
	C243.148682,418.858673 243.122757,418.888397 243.122772,418.888397 
	C243.073303,421.597656 243.023849,424.306885 242.980560,427.479614 
	C242.986725,427.943085 242.974289,427.980835 242.570724,427.958130 
	C237.326202,426.997284 232.504196,425.928772 227.629822,425.220856 
	C226.531006,425.061249 225.249619,426.158722 224.052277,426.677551 
	C224.883041,427.815399 225.538498,429.726898 226.573898,429.961548 
	C232.007919,431.192749 237.538116,431.999634 243.036392,432.969788 
	C243.037888,432.985718 243.010757,433.002197 243.010757,433.002197 
	C243.008835,436.651825 243.006912,440.301453 242.996735,444.396301 
	C230.095779,443.675232 217.847641,440.305573 206.616531,433.774658 
	C205.355637,433.041473 204.115173,430.999054 204.112152,429.561157 
	C204.007568,379.596130 204.052780,329.630859 204.085037,279.665588 
	C204.085144,279.512543 204.206802,279.359558 203.985474,279.881561 
	C216.806519,282.651001 229.480331,285.388611 242.577866,288.239929 
	C243.012787,292.926575 243.024002,297.499512 243.082245,302.622864 
	C243.129272,303.173248 243.104935,303.351593 242.682892,303.239319 
	C239.044678,302.728760 235.828506,302.330475 231.929489,301.847626 
	C231.929489,309.061218 231.929489,315.644684 231.929474,322.228119 
	C231.929474,332.793976 231.929474,332.793976 243.042053,332.979187 
	C243.055710,333.063232 243.024200,333.230530 243.024200,333.230530 
	C243.024445,338.491760 243.024689,343.753021 243.042648,349.528809 
	C243.060364,350.043335 243.048569,350.145905 242.629898,350.088013 
	C231.984604,347.857574 221.757980,345.685028 210.967941,343.392822 
	C210.967941,351.512207 210.846313,359.439606 211.099899,367.354950 
	C211.137680,368.534119 212.761337,370.400085 213.955185,370.687897 
	C223.558746,373.002991 233.235199,375.015747 242.948456,377.305634 
	C243.007553,377.490387 243.133286,377.857422 243.133286,377.857422 
z"/>
<path fill="#FF5554" opacity="1.000000" stroke="none" 
	d="
M243.590042,377.869080 
	C243.133286,377.857422 243.007553,377.490387 242.990479,376.826843 
	C242.998474,367.490845 243.023529,358.818359 243.048569,350.145905 
	C243.048569,350.145905 243.060364,350.043335 243.052917,349.992065 
	C263.339111,352.584412 282.990295,349.467163 302.992493,342.577393 
	C302.992493,351.550629 303.139801,359.794922 302.816162,368.020691 
	C302.773071,369.115936 300.496643,370.533691 298.990692,371.097229 
	C284.820343,376.400269 270.127533,378.593170 255.017853,378.111786 
	C251.362091,377.995331 247.703888,377.955688 243.590042,377.869080 
z"/>
<path fill="#597480" opacity="1.000000" stroke="none" 
	d="
M243.099655,303.088257 
	C255.820953,303.003235 268.571869,303.003235 282.060486,303.003235 
	C282.060486,311.383331 282.138275,320.638245 281.912720,329.885773 
	C281.894714,330.625092 279.809296,331.883331 278.640350,331.937012 
	C267.048737,332.469666 255.447739,332.799072 243.436798,333.208252 
	C243.024200,333.230530 243.055710,333.063232 243.040009,332.518860 
	C243.051178,322.433533 243.078049,312.892548 243.104919,303.351593 
	C243.104935,303.351593 243.129272,303.173248 243.099655,303.088257 
z"/>
<path fill="#FF9204" opacity="1.000000" stroke="none" 
	d="
M243.734772,404.741791 
	C243.294113,404.692017 243.138885,404.352478 243.068115,403.770752 
	C243.011520,401.810211 243.025696,400.431335 243.039871,399.052490 
	C243.039871,399.052490 243.044327,399.019653 243.029999,399.011993 
	C257.836426,400.585022 272.484406,399.583557 287.013733,396.275055 
	C288.092590,396.029419 289.463745,397.067383 290.699036,397.508606 
	C289.853333,398.705994 289.176636,400.758728 288.135040,400.964478 
	C280.343842,402.503723 272.520477,404.126587 264.627594,404.829559 
	C257.864990,405.431824 250.996887,404.849823 243.734772,404.741791 
z"/>
<path fill="#FF9204" opacity="1.000000" stroke="none" 
	d="
M243.147141,413.146362 
	C256.587494,415.151276 269.903625,413.910767 283.164703,411.436066 
	C285.232391,411.050201 287.282532,410.570251 289.518585,410.096130 
	C290.614197,413.530365 290.086029,415.222992 286.469513,416.085876 
	C272.457275,419.429138 258.284607,419.691742 243.572449,418.911133 
	C243.122757,418.888397 243.148682,418.858673 243.113464,418.440674 
	C243.096603,416.413116 243.114960,414.803589 243.133301,413.194031 
	C243.133301,413.194031 243.159393,413.161591 243.147141,413.146362 
z"/>
<path fill="#FF9204" opacity="1.000000" stroke="none" 
	d="
M242.972626,427.928345 
	C257.379333,429.404663 271.638794,428.509064 285.783966,425.282043 
	C286.991577,425.006531 288.517792,426.127625 289.895996,426.599915 
	C288.826691,427.795654 287.922699,429.795380 286.660889,430.054871 
	C279.226288,431.583649 271.748077,433.265015 264.206787,433.801117 
	C257.477325,434.279449 250.647171,433.341614 243.436111,433.015442 
	C243.010757,433.002197 243.037888,432.985718 243.028290,432.556488 
	C243.003876,430.745117 242.989090,429.362976 242.974304,427.980835 
	C242.974289,427.980835 242.986725,427.943085 242.972626,427.928345 
z"/>
<path fill="#FF8887" opacity="1.000000" stroke="none" 
	d="
M242.629898,350.088013 
	C243.023529,358.818359 242.998474,367.490845 242.931396,376.642090 
	C233.235199,375.015747 223.558746,373.002991 213.955185,370.687897 
	C212.761337,370.400085 211.137680,368.534119 211.099899,367.354950 
	C210.846313,359.439606 210.967941,351.512207 210.967941,343.392822 
	C221.757980,345.685028 231.984604,347.857574 242.629898,350.088013 
z"/>
<path fill="#8B9DA5" opacity="1.000000" stroke="none" 
	d="
M242.682877,303.239319 
	C243.078049,312.892548 243.051178,322.433533 243.026367,332.434814 
	C231.929474,332.793976 231.929474,332.793976 231.929474,322.228119 
	C231.929489,315.644684 231.929489,309.061218 231.929489,301.847626 
	C235.828506,302.330475 239.044678,302.728760 242.682877,303.239319 
z"/>
<path fill="#FFB24E" opacity="1.000000" stroke="none" 
	d="
M242.689575,413.138977 
	C243.114960,414.803589 243.096603,416.413116 243.102112,418.423492 
	C237.927490,417.905151 232.738678,416.926086 227.527298,416.087189 
	C223.875351,415.499329 223.378250,413.492584 224.533951,410.390167 
	C230.560318,411.306702 236.403076,412.195343 242.689575,413.138977 
z"/>
<path fill="#FFB24E" opacity="1.000000" stroke="none" 
	d="
M242.570740,427.958130 
	C242.989090,429.362976 243.003876,430.745117 243.026794,432.540588 
	C237.538116,431.999634 232.007919,431.192749 226.573898,429.961548 
	C225.538498,429.726898 224.883041,427.815399 224.052277,426.677551 
	C225.249619,426.158722 226.531006,425.061249 227.629822,425.220856 
	C232.504196,425.928772 237.326202,426.997284 242.570740,427.958130 
z"/>
<path fill="#FFB24E" opacity="1.000000" stroke="none" 
	d="
M242.618683,399.025574 
	C243.025696,400.431335 243.011520,401.810211 242.985001,403.603638 
	C237.618759,403.167725 232.222427,402.506317 226.943695,401.321075 
	C225.764496,401.056305 224.998169,398.952850 224.041748,397.695923 
	C225.391602,397.302460 226.803146,396.434387 228.080292,396.600372 
	C232.810028,397.215118 237.495438,398.170959 242.618683,399.025574 
z"/>
</svg>